<svg xmlns="http://www.w3.org/2000/svg" width="500" height="500" style="width:100%;height:100%;transform:translate3d(0,0,0);content-visibility:visible" viewBox="0 0 500 500"><defs><clipPath id="a"><path d="M0 0h500v500H0z"/></clipPath></defs><g clip-path="url(#a)"><path fill="none" stroke="#393346" stroke-linecap="round" stroke-linejoin="round" stroke-width="7" d="m25.022-137.966-40.742 19.242M24.915-5.805l-40.712-17.929" style="display:block" transform="translate(270.834 322)"/><g fill="#2CA48D" style="display:block"><path d="M437.063 147c0 32.706-26.513 59.219-59.219 59.219S318.625 179.706 318.625 147s26.513-59.219 59.219-59.219 59.219 26.513 59.219 59.219z"/><path d="M155.96 270.685c-10.56 9.77-24.69 15.74-40.2 15.74-32.7 0-59.22-26.51-59.22-59.21 0-25.57 16.21-47.35 38.9-55.64-11.7 10.8-19.03 26.28-19.03 43.47 0 32.71 26.52 59.22 59.22 59.22 7.14 0 13.99-1.26 20.33-3.58z" opacity=".5" style="mix-blend-mode:multiply" transform="translate(262.079 -80.208)"/></g><path fill="none" stroke="#393346" stroke-linecap="round" stroke-linejoin="round" stroke-width="7" d="M392.462 133.95c-3.971-6.793-12.677-10.941-20.408-8.434-4.238 1.374-7.8 5.126-8.271 9.558-1.787 16.828 29.458 8.154 29.039 25.343-.072 2.952-1.666 5.75-3.941 7.631-2.275 1.881-5.174 2.904-8.103 3.276-7.344.933-14.825-2.268-19.4-8.038m15.724 19.569v-11.406m0-46.662v-11.382" style="display:block"/><g fill="#2CA48D" style="display:block"><path d="M436.629 350.649c0 32.706-26.513 59.219-59.219 59.219s-59.219-26.513-59.219-59.219 26.513-59.219 59.219-59.219 59.219 26.513 59.219 59.219z"/><path d="M49.71 41.695c-10.56 9.77-24.68 15.74-40.21 15.74-32.7 0-59.21-26.51-59.21-59.22 0-25.57 16.2-47.35 38.9-55.65-11.7 10.81-19.03 26.3-19.03 43.49 0 32.71 26.51 59.22 59.21 59.22 7.15 0 14-1.27 20.34-3.58z" opacity=".5" style="mix-blend-mode:multiply" transform="translate(367.903 352.433)"/></g><path fill="none" stroke="#393346" stroke-linecap="round" stroke-linejoin="round" stroke-width="7" d="M392.462 336.95c-3.971-6.793-12.677-10.941-20.408-8.434-4.238 1.374-7.8 5.126-8.271 9.558-1.787 16.828 29.458 8.154 29.039 25.343-.072 2.952-1.666 5.75-3.941 7.631-2.275 1.881-5.174 2.904-8.103 3.276-7.344.933-14.825-2.268-19.4-8.038m15.724 19.569v-11.406m0-46.662v-11.382" style="display:block"/><g style="display:none"><path/><path style="mix-blend-mode:multiply"/></g><g fill="none" style="display:none"><path/><path/><path/></g><g style="display:none"><path/><path style="mix-blend-mode:multiply"/></g><g fill="none" style="display:none"><path/><path/><path/></g><g fill="#FFC638" style="display:block"><path d="M237.193 250.221c0 47.51-38.515 86.025-86.025 86.025-47.51 0-86.025-38.515-86.025-86.025 0-47.51 38.515-86.025 86.025-86.025 47.51 0 86.025 38.515 86.025 86.025z"/><path d="M70.195 63.06c-14.82 12.1-33.74 19.36-54.37 19.36-47.51 0-86.02-38.52-86.02-86.03 0-35.23 21.18-65.51 51.5-78.81-19.31 15.78-31.63 39.77-31.63 66.65 0 47.51 38.51 86.03 86.02 86.03 12.27 0 23.94-2.57 34.5-7.2z" opacity=".5" style="mix-blend-mode:multiply" transform="translate(135.338 253.828)"/></g><g fill="none" stroke="#393346" stroke-width="7" style="display:block"><path d="m183.25 218.21-63.94 63.95m43.82-7.27c0-6.9 5.59-12.5 12.49-12.5s12.5 5.6 12.5 12.5-5.6 12.49-12.5 12.49-12.49-5.59-12.49-12.49zm-49.99-49.78c0-6.9 5.6-12.49 12.5-12.49s12.5 5.59 12.5 12.49-5.6 12.5-12.5 12.5-12.5-5.6-12.5-12.5z"/><path stroke-linecap="round" stroke-linejoin="round" d="m183.25 218.214-63.942 63.942m43.819-7.269c0-6.901 5.595-12.496 12.496-12.496 6.901 0 12.496 5.595 12.496 12.496 0 6.901-5.595 12.496-12.496 12.496-6.901 0-12.496-5.595-12.496-12.496zm-49.983-49.774c0-6.901 5.595-12.496 12.496-12.496 6.901 0 12.496 5.595 12.496 12.496 0 6.901-5.595 12.496-12.496 12.496-6.901 0-12.496-5.595-12.496-12.496z"/></g><g class="com" style="display:none"><path/><path/><path/><path/><path/><path/><path/><path/><path/><path/><path/><path/></g></g></svg>