<svg width="27" height="26" viewBox="0 0 27 26" fill="none" xmlns="http://www.w3.org/2000/svg">
<path fill-rule="evenodd" clip-rule="evenodd" d="M22.6507 15.6668C21.4033 19.9397 17.4565 23.0613 12.7807 23.0613C7.10281 23.0613 2.5 18.4585 2.5 12.7807C2.5 7.10281 7.10281 2.5 12.7807 2.5C17.0122 2.5 20.6467 5.05657 22.2237 8.70938L19.9641 7.80013C19.7079 7.69704 19.4167 7.82115 19.3136 8.07732L19.0116 8.82775C18.9085 9.08393 19.0326 9.37517 19.2888 9.47826L24.2314 11.4671C24.4876 11.5702 24.7788 11.4461 24.8819 11.1899L25.1839 10.4395L25.1876 10.4301L26.872 6.24413C26.9751 5.98795 26.851 5.69671 26.5948 5.59363L25.8453 5.29202C25.5891 5.18893 25.2978 5.31304 25.1948 5.56922L24.4202 7.49416C22.4092 3.07354 17.9538 0 12.7807 0C5.7221 0 0 5.7221 0 12.7807C0 19.8392 5.7221 25.5613 12.7807 25.5613C18.8467 25.5613 23.9257 21.3353 25.2341 15.6668H22.6507ZM13.3552 7.70322C13.3552 7.01286 12.7955 6.45322 12.1052 6.45322C11.4148 6.45322 10.8552 7.01286 10.8552 7.70322V13.6854C10.8552 14.1753 11.0944 14.6344 11.496 14.915L15.2409 17.5317C15.8068 17.9271 16.5861 17.7889 16.9815 17.223C17.3769 16.6571 17.2387 15.8778 16.6728 15.4824L13.3552 13.1642V7.70322Z" fill="#297AFF"/>
</svg>
