<svg width="22" height="27" viewBox="0 0 22 27" fill="none" xmlns="http://www.w3.org/2000/svg">
<path d="M10.881 13.6563L18.9032 19.2305C19.4411 19.6043 19.7619 20.2178 19.7619 20.8729V24.8125C19.7619 25.0886 19.538 25.3125 19.2619 25.3125H2.5C2.22386 25.3125 2 25.0886 2 24.8125V20.8729C2 20.2178 2.3208 19.6043 2.85876 19.2305L10.881 13.6563ZM10.881 13.6563L18.9031 8.082C19.4411 7.7082 19.7619 7.09465 19.7619 6.43958V2.5C19.7619 2.22386 19.538 2 19.2619 2H2.5C2.22386 2 2 2.22386 2 2.5V6.43958C2 7.09465 2.3208 7.7082 2.85876 8.082L10.881 13.6563Z" stroke="#FB923C" stroke-width="2.5" stroke-linecap="round" stroke-linejoin="round"/>
</svg>
