<svg xmlns="http://www.w3.org/2000/svg" width="500" height="500" style="width:100%;height:100%;transform:translate3d(0,0,0);content-visibility:visible" viewBox="0 0 500 500"><defs><clipPath id="a"><path d="M0 0h500v500H0z"/></clipPath></defs><g clip-path="url(#a)"><path fill="#4AB3FC" d="M121.32-46.13c-17.944-42.066-59.671-71.558-108.293-71.558-45.444 0-84.843 25.775-104.454 63.487A36.496 36.496 0 0 0-102.739-56c-20.227 0-36.62 16.397-36.62 36.624 0 2.709.314 5.341.871 7.882-21.794 11.473-36.677 34.307-36.677 60.648 0 37.849 30.685 68.534 68.534 68.534H90.317c46.858 0 84.848-37.986 84.848-84.844 0-35.913-22.327-66.591-53.845-78.974z" style="display:block" transform="translate(250 247) scale(.99999)"/><g opacity=".5" style="mix-blend-mode:multiply;display:block"><path fill="#4AB3FC" d="M-19.58 49.154c0-26.341 14.883-49.175 36.677-60.648a36.745 36.745 0 0 1-.872-7.882C16.225-39.603 32.619-56 52.846-56c3.951 0 7.749.64 11.312 1.799 11.948-22.977 31.251-41.507 54.782-52.492-15.097-7.045-31.928-10.995-49.688-10.995-45.444 0-84.843 25.775-104.454 63.487A36.49 36.49 0 0 0-46.514-56c-20.226 0-36.621 16.397-36.621 36.624 0 2.709.315 5.341.872 7.882-21.795 11.473-36.677 34.307-36.677 60.648 0 37.849 30.685 68.534 68.534 68.534h99.36c-37.849 0-68.534-30.685-68.534-68.534z" opacity="1" style="mix-blend-mode:multiply" transform="translate(192.695 247) scale(.99999)"/></g><path fill="none" stroke="#121330" stroke-linecap="round" stroke-linejoin="round" stroke-width="7" d="m212.744 261.759-36.976 27.245 36.976 27.245m90.936-54.49 36.976 27.245-36.976 27.245m-37.046-54.49-17.656 54.49" style="display:block"/><g class="com" style="display:none"><path/><path/><path/><path/><path/><path/><path/><path/><path/><path/><path/><path/></g></g></svg>