<svg width="26" height="26" viewBox="0 0 26 26" fill="none" xmlns="http://www.w3.org/2000/svg">
<path fill-rule="evenodd" clip-rule="evenodd" d="M1.57012 7.92205C1.31201 7.77303 0.980906 7.88123 0.873258 8.15914C0.309302 9.61512 0 11.198 0 12.8531C0 14.5082 0.309325 16.0912 0.873319 17.5472C0.980969 17.8251 1.31207 17.9333 1.57018 17.7843L4.50913 16.0875C4.72045 15.9655 4.8113 15.7092 4.73751 15.4766C4.47497 14.649 4.33333 13.7676 4.33333 12.8531C4.33333 11.9386 4.47496 11.0573 4.73746 10.2297C4.81125 9.99714 4.7204 9.74087 4.50908 9.61886L1.57012 7.92205ZM2.87455 4.69912C2.68732 4.93134 2.75898 5.27264 3.01731 5.42179L5.95562 7.11822C6.16682 7.24016 6.43406 7.19082 6.59852 7.01073C7.78429 5.71221 9.35987 4.77574 11.1401 4.38646C11.3787 4.33429 11.5556 4.12736 11.5556 3.88314V0.490743C11.5556 0.19285 11.2963 -0.0397293 11.0019 0.00568639C7.73063 0.51031 4.86185 2.23446 2.87455 4.69912ZM20.0443 18.5881C19.833 18.4662 19.5658 18.5155 19.4014 18.6956C18.2156 19.994 16.6401 20.9304 14.8599 21.3197C14.6213 21.3719 14.4444 21.5788 14.4444 21.823V25.2154C14.4444 25.5133 14.7037 25.7459 14.9981 25.7005C18.2693 25.1959 21.138 23.4718 23.1253 21.0072C23.3126 20.775 23.2409 20.4337 22.9826 20.2845L20.0443 18.5881ZM25.1267 17.5472C25.019 17.8251 24.6879 17.9333 24.4298 17.7843L21.4909 16.0875C21.2795 15.9655 21.1887 15.7092 21.2625 15.4766C21.525 14.649 21.6667 13.7676 21.6667 12.8531C21.6667 11.9386 21.525 11.0573 21.2625 10.2297C21.1887 9.99711 21.2796 9.74083 21.4909 9.61883L24.4299 7.92202C24.688 7.773 25.0191 7.8812 25.1267 8.15911C25.6907 9.61509 26 11.198 26 12.8531C26 14.5083 25.6907 16.0912 25.1267 17.5472ZM11.5556 25.2154C11.5556 25.5133 11.2963 25.7459 11.0019 25.7005C7.73069 25.1959 4.86195 23.4718 2.87466 21.0072C2.68742 20.775 2.75908 20.4337 3.01741 20.2845L5.95573 18.5881C6.16693 18.4661 6.43417 18.5155 6.59862 18.6956C7.78438 19.994 9.35992 20.9304 11.1401 21.3197C11.3787 21.3719 11.5556 21.5788 11.5556 21.823V25.2154ZM14.4444 0.490743C14.4444 0.19285 14.7037 -0.0397293 14.9981 0.00568635C18.2694 0.510308 21.1381 2.23445 23.1254 4.6991C23.3127 4.93131 23.241 5.27261 22.9827 5.42176L20.0444 7.11819C19.8332 7.24013 19.5659 7.1908 19.4015 7.0107C18.2157 5.7122 16.6401 4.77574 14.8599 4.38646C14.6213 4.33429 14.4444 4.12736 14.4444 3.88314V0.490743Z" fill="#B5346A"/>
</svg>
