<svg width="29" height="28" viewBox="0 0 29 28" fill="none" xmlns="http://www.w3.org/2000/svg">
<path d="M24.1429 6.72727C24.1429 9.33807 22.0642 11.4545 19.5 11.4545C16.9358 11.4545 14.8571 9.33807 14.8571 6.72727C14.8571 4.11647 16.9358 2 19.5 2C22.0642 2 24.1429 4.11647 24.1429 6.72727Z" fill="#34B5A6"/>
<path d="M12 23.6364C12 19.7202 15.118 16.5455 18.9643 16.5455H20.0357C23.882 16.5455 27 19.7202 27 23.6364C27 24.9418 25.9607 26 24.6786 26H14.3214C13.0393 26 12 24.9418 12 23.6364Z" fill="#34B5A6"/>
<path d="M24.1429 6.72727C24.1429 9.33807 22.0642 11.4545 19.5 11.4545C16.9358 11.4545 14.8571 9.33807 14.8571 6.72727C14.8571 4.11647 16.9358 2 19.5 2C22.0642 2 24.1429 4.11647 24.1429 6.72727Z" stroke="#34B5A6" stroke-width="2.5" stroke-linecap="round" stroke-linejoin="round"/>
<path d="M12 23.6364C12 19.7202 15.118 16.5455 18.9643 16.5455H20.0357C23.882 16.5455 27 19.7202 27 23.6364C27 24.9418 25.9607 26 24.6786 26H14.3214C13.0393 26 12 24.9418 12 23.6364Z" stroke="#34B5A6" stroke-width="2.5" stroke-linecap="round" stroke-linejoin="round"/>
<path d="M14.1429 6.72727C14.1429 9.33807 12.0642 11.4545 9.5 11.4545C6.93582 11.4545 4.85714 9.33807 4.85714 6.72727C4.85714 4.11647 6.93582 2 9.5 2C12.0642 2 14.1429 4.11647 14.1429 6.72727Z" fill="white"/>
<path d="M2 23.6364C2 19.7202 5.11802 16.5455 8.96429 16.5455H10.0357C13.882 16.5455 17 19.7202 17 23.6364C17 24.9418 15.9607 26 14.6786 26H4.32143C3.03934 26 2 24.9418 2 23.6364Z" fill="white"/>
<path d="M14.1429 6.72727C14.1429 9.33807 12.0642 11.4545 9.5 11.4545C6.93582 11.4545 4.85714 9.33807 4.85714 6.72727C4.85714 4.11647 6.93582 2 9.5 2C12.0642 2 14.1429 4.11647 14.1429 6.72727Z" stroke="#34B5A6" stroke-width="2.5" stroke-linecap="round" stroke-linejoin="round"/>
<path d="M2 23.6364C2 19.7202 5.11802 16.5455 8.96429 16.5455H10.0357C13.882 16.5455 17 19.7202 17 23.6364C17 24.9418 15.9607 26 14.6786 26H4.32143C3.03934 26 2 24.9418 2 23.6364Z" stroke="#34B5A6" stroke-width="2.5" stroke-linecap="round" stroke-linejoin="round"/>
</svg>
