<svg width="12" height="11" viewBox="0 0 12 11" fill="none" xmlns="http://www.w3.org/2000/svg">
<path d="M10.1 2.5C10.1 3.57696 9.22695 4.45 8.15 4.45C7.07304 4.45 6.2 3.57696 6.2 2.5C6.2 1.42305 7.07304 0.550003 8.15 0.550003C9.22695 0.550003 10.1 1.42305 10.1 2.5Z" fill="#3B82F6"/>
<path d="M5 9.475C5 7.85957 6.30957 6.55 7.925 6.55H8.375C9.99043 6.55 11.3 7.85957 11.3 9.475C11.3 10.0135 10.8635 10.45 10.325 10.45H5.975C5.43652 10.45 5 10.0135 5 9.475Z" fill="#3B82F6"/>
<path d="M10.1 2.5C10.1 3.57696 9.22695 4.45 8.15 4.45C7.07304 4.45 6.2 3.57696 6.2 2.5C6.2 1.42305 7.07304 0.550003 8.15 0.550003C9.22695 0.550003 10.1 1.42305 10.1 2.5Z" stroke="#3B82F6" stroke-linecap="round" stroke-linejoin="round"/>
<path d="M5 9.475C5 7.85957 6.30957 6.55 7.925 6.55H8.375C9.99043 6.55 11.3 7.85957 11.3 9.475C11.3 10.0135 10.8635 10.45 10.325 10.45H5.975C5.43652 10.45 5 10.0135 5 9.475Z" stroke="#3B82F6" stroke-linecap="round" stroke-linejoin="round"/>
<path d="M6.1 2.5C6.1 3.57696 5.22695 4.45 4.15 4.45C3.07304 4.45 2.2 3.57696 2.2 2.5C2.2 1.42305 3.07304 0.550003 4.15 0.550003C5.22695 0.550003 6.1 1.42305 6.1 2.5Z" fill="white"/>
<path d="M1 9.475C1 7.85957 2.30957 6.55 3.925 6.55H4.375C5.99043 6.55 7.3 7.85957 7.3 9.475C7.3 10.0135 6.86348 10.45 6.325 10.45H1.975C1.43652 10.45 1 10.0135 1 9.475Z" fill="white"/>
<path d="M6.1 2.5C6.1 3.57696 5.22695 4.45 4.15 4.45C3.07304 4.45 2.2 3.57696 2.2 2.5C2.2 1.42305 3.07304 0.550003 4.15 0.550003C5.22695 0.550003 6.1 1.42305 6.1 2.5Z" stroke="#3B82F6" stroke-linecap="round" stroke-linejoin="round"/>
<path d="M1 9.475C1 7.85957 2.30957 6.55 3.925 6.55H4.375C5.99043 6.55 7.3 7.85957 7.3 9.475C7.3 10.0135 6.86348 10.45 6.325 10.45H1.975C1.43652 10.45 1 10.0135 1 9.475Z" stroke="#3B82F6" stroke-linecap="round" stroke-linejoin="round"/>
</svg>
