<svg width="191" height="262" viewBox="0 0 191 262" fill="none" xmlns="http://www.w3.org/2000/svg">
<path fill-rule="evenodd" clip-rule="evenodd" d="M190.912 164.588L190.911 0.5L103.641 77.3174L113.349 87.0249L179.239 29.0267L179.239 152.915L190.912 164.588ZM95.1118 198.323L125.809 229.019L184 170.828L95.8279 82.6558L7.65579 170.828L65.1311 228.303L95.1118 198.323ZM69.7554 235.541L95.3561 261.141L120.957 235.541L95.3561 209.94L69.7554 235.541ZM0.502441 162.502V3.5L87.453 77.1312L78.6415 85.7827L12.125 29.4554V151.091L0.502441 162.502ZM20.3704 141.709L20.3704 46.9681L72.1794 90.8409L20.3704 141.709ZM170 142.5V51L120.969 92.7137L170 142.5Z" fill="url(#paint0_linear_101_23)"/>
<defs>
<linearGradient id="paint0_linear_101_23" x1="95.707" y1="0.5" x2="95.707" y2="261.141" gradientUnits="userSpaceOnUse">
<stop stop-color="#FF8F45"/>
<stop offset="1" stop-color="#EC3927"/>
</linearGradient>
</defs>
</svg>
